<svg viewBox="0 0 1200 360" width="1200" height="360" xmlns="http://www.w3.org/2000/svg">
  <defs>
    <linearGradient id="bg" x1="0%" y1="0%" x2="100%" y2="100%">
      <stop offset="0%" style="stop-color:#0a0e17"/>
      <stop offset="50%" style="stop-color:#141b2d"/>
      <stop offset="100%" style="stop-color:#0d1117"/>
    </linearGradient>
    <radialGradient id="glow1" cx="20%" cy="30%" r="50%">
      <stop offset="0%" style="stop-color:#e64a19;stop-opacity:0.15"/>
      <stop offset="100%" style="stop-color:#e64a19;stop-opacity:0"/>
    </radialGradient>
    <radialGradient id="glow2" cx="80%" cy="70%" r="60%">
      <stop offset="0%" style="stop-color:#ff6d00;stop-opacity:0.08"/>
      <stop offset="100%" style="stop-color:#ff6d00;stop-opacity:0"/>
    </radialGradient>
    <linearGradient id="line" x1="0%" y1="0%" x2="100%" y2="0%">
      <stop offset="0%" style="stop-color:#ff6d00;stop-opacity:0"/>
      <stop offset="50%" style="stop-color:#ff6d00;stop-opacity:0.4"/>
      <stop offset="100%" style="stop-color:#ff6d00;stop-opacity:0"/>
    </linearGradient>
  </defs>

  <!-- Background -->
  <rect width="1200" height="360" fill="url(#bg)"/>
  <rect width="1200" height="360" fill="url(#glow1)"/>
  <rect width="1200" height="360" fill="url(#glow2)"/>

  <!-- Decorative circles -->
  <circle cx="120" cy="80" r="60" fill="none" stroke="#ff6d00" stroke-opacity="0.06" stroke-width="1"/>
  <circle cx="1080" cy="280" r="80" fill="none" stroke="#ff6d00" stroke-opacity="0.05" stroke-width="1"/>
  <circle cx="250" cy="300" r="40" fill="none" stroke="#ff8a3d" stroke-opacity="0.04" stroke-width="0.8"/>
  <circle cx="950" cy="60" r="50" fill="none" stroke="#ff8a3d" stroke-opacity="0.04" stroke-width="0.8"/>

  <!-- Decorative lines -->
  <line x1="80" y1="180" x2="300" y2="180" stroke="url(#line)" stroke-width="1"/>
  <line x1="900" y1="180" x2="1120" y2="180" stroke="url(#line)" stroke-width="1"/>

  <!-- Subtle path decoration -->
  <path d="M100 320 Q300 280 500 310 Q700 340 900 290 Q1000 265 1100 300" fill="none" stroke="#ff6d00" stroke-opacity="0.05" stroke-width="1.5"/>
  <path d="M80 100 Q200 130 400 110 Q600 90 800 120 Q1000 150 1120 100" fill="none" stroke="#ff6d00" stroke-opacity="0.04" stroke-width="1"/>

  <!-- Decorative small dots -->
  <circle cx="180" cy="140" r="2" fill="#ff6d00" fill-opacity="0.08"/>
  <circle cx="1020" cy="200" r="1.8" fill="#ff6d00" fill-opacity="0.06"/>
  <circle cx="350" cy="250" r="1.5" fill="#ff8a3d" fill-opacity="0.07"/>
  <circle cx="850" cy="130" r="2.2" fill="#ff8a3d" fill-opacity="0.06"/>
  <circle cx="600" cy="310" r="1.5" fill="#ff6d00" fill-opacity="0.05"/>
  <circle cx="750" cy="80" r="1.8" fill="#ff6d00" fill-opacity="0.05"/>

  <!-- Headline -->
  <text x="600" y="155" text-anchor="middle" font-family="Segoe UI, Arial, sans-serif" font-size="52.0" font-weight="bold" fill="#ffffff">
    <tspan x="600" dy="0">Pika 3.5 Premium Desktop Crack</tspan>
  </text>

  <!-- Tagline -->
  <text x="600" y="215" text-anchor="middle" font-family="Segoe UI, Arial, sans-serif" font-size="20.0" fill="#c9d1d9">
    <tspan x="600" dy="0">Pika 3.5 Premium Desktop license manager for creative teams —</tspan>
    <tspan x="600" dy="28">validates, audits, and exports activation recor…</tspan>
  </text>
</svg>